<svg width="512" height="512" viewBox="0 0 512 512" fill="none" xmlns="http://www.w3.org/2000/svg">
  <rect width="512" height="512" rx="128" fill="#0f172a"/>
  <path d="M256 128C211.8 128 176 163.8 176 208C176 252.2 211.8 288 256 288C300.2 288 336 252.2 336 208C336 163.8 300.2 128 256 128ZM256 256C229.5 256 208 234.5 208 208C208 181.5 229.5 160 256 160C282.5 160 304 181.5 304 208C304 234.5 282.5 256 256 256Z" fill="#60a5fa"/>
  <path d="M384 320H128C115.3 320 105 330.3 105 343V361C105 373.7 115.3 384 128 384H384C396.7 384 407 373.7 407 361V343C407 330.3 396.7 320 384 320Z" fill="#60a5fa"/>
  <circle cx="256" cy="208" r="24" fill="#60a5fa"/>
</svg>
